<mxfile host="app.diagrams.net" modified="2023-11-24T11:29:42.777Z" agent="Mozilla/5.0 (Windows NT 10.0; Win64; x64) AppleWebKit/537.36 (KHTML, like Gecko) Chrome/119.0.0.0 Safari/537.36 Edg/119.0.0.0" etag="l7yTkmQBTgnscyepj9yJ" version="22.1.3" type="device">
  <diagram name="Pàgina-1" id="t4-3i-fzktAIc9puQOTV">
    <mxGraphModel dx="742" dy="402" grid="1" gridSize="10" guides="1" tooltips="1" connect="1" arrows="1" fold="1" page="1" pageScale="1" pageWidth="827" pageHeight="1169" math="0" shadow="0">
      <root>
        <mxCell id="0" />
        <mxCell id="1" parent="0" />
        <mxCell id="68czG8918Wwrf0z5QYm2-38" value="" style="triangle;whiteSpace=wrap;html=1;rotation=25;" vertex="1" parent="1">
          <mxGeometry x="91.48000000000002" y="254.17" width="187.03" height="110" as="geometry" />
        </mxCell>
        <mxCell id="68czG8918Wwrf0z5QYm2-39" value="P2" style="text;html=1;strokeColor=none;fillColor=none;align=center;verticalAlign=middle;whiteSpace=wrap;rounded=0;fontColor=#0000FF;fontStyle=1" vertex="1" parent="1">
          <mxGeometry x="259.06" y="345" width="50.94" height="30" as="geometry" />
        </mxCell>
        <mxCell id="68czG8918Wwrf0z5QYm2-40" value="" style="endArrow=none;html=1;rounded=0;strokeColor=#00FFFF;exitX=0.731;exitY=0.981;exitDx=0;exitDy=0;entryX=1;entryY=0.5;entryDx=0;entryDy=0;exitPerimeter=0;" edge="1" parent="1" target="68czG8918Wwrf0z5QYm2-38">
          <mxGeometry width="50" height="50" relative="1" as="geometry">
            <mxPoint x="122.92000000000002" y="219.42999999999995" as="sourcePoint" />
            <mxPoint x="259.06" y="350" as="targetPoint" />
          </mxGeometry>
        </mxCell>
        <mxCell id="68czG8918Wwrf0z5QYm2-41" value="&lt;b&gt;P1&lt;/b&gt;" style="text;html=1;strokeColor=none;fillColor=none;align=center;verticalAlign=middle;whiteSpace=wrap;rounded=0;fontColor=#0000FF;" vertex="1" parent="1">
          <mxGeometry x="89.05999999999995" y="192.99999999999997" width="60" height="30" as="geometry" />
        </mxCell>
        <mxCell id="68czG8918Wwrf0z5QYm2-42" value="" style="ellipse;whiteSpace=wrap;html=1;labelBackgroundColor=#FF0F0F;fillColor=#000000;fontColor=#FF0F0F;" vertex="1" parent="1">
          <mxGeometry x="121.06" y="218" width="5" height="5" as="geometry" />
        </mxCell>
        <mxCell id="68czG8918Wwrf0z5QYm2-43" value="" style="ellipse;whiteSpace=wrap;html=1;labelBackgroundColor=#FF0F0F;fillColor=#000000;fontColor=#FF0F0F;" vertex="1" parent="1">
          <mxGeometry x="266.06" y="345" width="5" height="5" as="geometry" />
        </mxCell>
        <mxCell id="68czG8918Wwrf0z5QYm2-44" value="" style="ellipse;whiteSpace=wrap;html=1;labelBackgroundColor=#FF0F0F;fillColor=#000000;fontColor=#FF0F0F;" vertex="1" parent="1">
          <mxGeometry x="239.06" y="190" width="5" height="5" as="geometry" />
        </mxCell>
        <mxCell id="68czG8918Wwrf0z5QYm2-45" value="" style="endArrow=none;dashed=1;html=1;dashPattern=1 2;strokeWidth=1;rounded=0;entryX=0.467;entryY=0.463;entryDx=0;entryDy=0;entryPerimeter=0;exitX=1;exitY=0.5;exitDx=0;exitDy=0;" edge="1" parent="1" source="68czG8918Wwrf0z5QYm2-42" target="68czG8918Wwrf0z5QYm2-44">
          <mxGeometry width="50" height="50" relative="1" as="geometry">
            <mxPoint x="159.06" y="220" as="sourcePoint" />
            <mxPoint x="179.06" y="240" as="targetPoint" />
          </mxGeometry>
        </mxCell>
        <mxCell id="68czG8918Wwrf0z5QYm2-46" value="" style="endArrow=none;dashed=1;html=1;dashPattern=1 2;strokeWidth=1;rounded=0;exitX=0.5;exitY=1;exitDx=0;exitDy=0;entryX=0.5;entryY=0;entryDx=0;entryDy=0;" edge="1" parent="1" source="68czG8918Wwrf0z5QYm2-44" target="68czG8918Wwrf0z5QYm2-43">
          <mxGeometry width="50" height="50" relative="1" as="geometry">
            <mxPoint x="136.06" y="231" as="sourcePoint" />
            <mxPoint x="289.06" y="260" as="targetPoint" />
          </mxGeometry>
        </mxCell>
        <mxCell id="68czG8918Wwrf0z5QYm2-47" value="" style="endArrow=none;html=1;rounded=0;entryX=0;entryY=1;entryDx=0;entryDy=0;exitX=0.375;exitY=0.184;exitDx=0;exitDy=0;exitPerimeter=0;strokeColor=#00CC66;" edge="1" parent="1" source="68czG8918Wwrf0z5QYm2-38" target="68czG8918Wwrf0z5QYm2-44">
          <mxGeometry width="50" height="50" relative="1" as="geometry">
            <mxPoint x="169.06" y="279" as="sourcePoint" />
            <mxPoint x="149.06" y="230" as="targetPoint" />
          </mxGeometry>
        </mxCell>
        <mxCell id="68czG8918Wwrf0z5QYm2-48" value="&lt;font style=&quot;font-size: 9px;&quot;&gt;&amp;nbsp; &amp;nbsp; &amp;nbsp;&lt;font color=&quot;#00cc66&quot;&gt;α&lt;/font&gt; &amp;lt; 90º&lt;/font&gt;" style="text;html=1;strokeColor=none;fillColor=none;align=center;verticalAlign=middle;whiteSpace=wrap;rounded=0;" vertex="1" parent="1">
          <mxGeometry x="121.06" y="205.5" width="60.55" height="30" as="geometry" />
        </mxCell>
        <mxCell id="68czG8918Wwrf0z5QYm2-49" value="&lt;font style=&quot;font-size: 9px;&quot;&gt;&amp;nbsp; &amp;nbsp;&lt;font color=&quot;#00cc66&quot;&gt; &amp;nbsp;β&amp;nbsp;&lt;/font&gt;&amp;lt; 90º&lt;/font&gt;" style="text;html=1;strokeColor=none;fillColor=none;align=center;verticalAlign=middle;whiteSpace=wrap;rounded=0;" vertex="1" parent="1">
          <mxGeometry x="210.51" y="290" width="60.55" height="30" as="geometry" />
        </mxCell>
        <mxCell id="68czG8918Wwrf0z5QYm2-50" value="d = D" style="text;html=1;strokeColor=none;fillColor=none;align=center;verticalAlign=middle;whiteSpace=wrap;rounded=0;" vertex="1" parent="1">
          <mxGeometry x="184.06" y="235.5" width="60" height="30" as="geometry" />
        </mxCell>
        <mxCell id="68czG8918Wwrf0z5QYm2-51" value="d = projecció ortogonal de p en recta P1 P2" style="text;html=1;strokeColor=none;fillColor=none;align=center;verticalAlign=middle;whiteSpace=wrap;rounded=0;" vertex="1" parent="1">
          <mxGeometry x="244.06" y="380" width="250" height="30" as="geometry" />
        </mxCell>
        <mxCell id="68czG8918Wwrf0z5QYm2-52" value="" style="triangle;whiteSpace=wrap;html=1;rotation=25;" vertex="1" parent="1">
          <mxGeometry x="451.48" y="253.33999999999995" width="187.03" height="110" as="geometry" />
        </mxCell>
        <mxCell id="68czG8918Wwrf0z5QYm2-55" value="&lt;font color=&quot;#0000ff&quot;&gt;&lt;b&gt;P1&lt;/b&gt;&lt;/font&gt;" style="text;html=1;strokeColor=none;fillColor=none;align=center;verticalAlign=middle;whiteSpace=wrap;rounded=0;" vertex="1" parent="1">
          <mxGeometry x="439.99999999999994" y="205.49999999999997" width="60" height="30" as="geometry" />
        </mxCell>
        <mxCell id="68czG8918Wwrf0z5QYm2-69" value="" style="endArrow=none;html=1;rounded=0;entryX=1;entryY=0.5;entryDx=0;entryDy=0;endSize=3;targetPerimeterSpacing=-3;sourcePerimeterSpacing=-2;startSize=5;fontSize=3;" edge="1" parent="1" target="68czG8918Wwrf0z5QYm2-52">
          <mxGeometry width="50" height="50" relative="1" as="geometry">
            <mxPoint x="439" y="180" as="sourcePoint" />
            <mxPoint x="623" y="343" as="targetPoint" />
          </mxGeometry>
        </mxCell>
        <mxCell id="68czG8918Wwrf0z5QYm2-59" value="" style="endArrow=none;dashed=1;html=1;dashPattern=1 2;strokeWidth=1;rounded=0;exitX=0;exitY=0;exitDx=0;exitDy=0;" edge="1" parent="1" source="68czG8918Wwrf0z5QYm2-56">
          <mxGeometry width="50" height="50" relative="1" as="geometry">
            <mxPoint x="519.06" y="219.17" as="sourcePoint" />
            <mxPoint x="470" y="160" as="targetPoint" />
          </mxGeometry>
        </mxCell>
        <mxCell id="68czG8918Wwrf0z5QYm2-60" value="" style="endArrow=none;dashed=1;html=1;dashPattern=1 2;strokeWidth=1;rounded=0;entryX=0.5;entryY=0;entryDx=0;entryDy=0;" edge="1" parent="1" source="68czG8918Wwrf0z5QYm2-58" target="68czG8918Wwrf0z5QYm2-57">
          <mxGeometry width="50" height="50" relative="1" as="geometry">
            <mxPoint x="470" y="160" as="sourcePoint" />
            <mxPoint x="649.06" y="259.17" as="targetPoint" />
          </mxGeometry>
        </mxCell>
        <mxCell id="68czG8918Wwrf0z5QYm2-54" value="" style="endArrow=none;html=1;rounded=0;strokeColor=#00FFFF;exitX=0.731;exitY=0.981;exitDx=0;exitDy=0;entryX=1;entryY=0.5;entryDx=0;entryDy=0;exitPerimeter=0;" edge="1" parent="1" target="68czG8918Wwrf0z5QYm2-52">
          <mxGeometry width="50" height="50" relative="1" as="geometry">
            <mxPoint x="482.92" y="218.59999999999994" as="sourcePoint" />
            <mxPoint x="619.06" y="349.17" as="targetPoint" />
          </mxGeometry>
        </mxCell>
        <mxCell id="68czG8918Wwrf0z5QYm2-63" value="&lt;font style=&quot;font-size: 9px;&quot;&gt;&amp;nbsp; &amp;nbsp;&lt;font color=&quot;#00cc66&quot;&gt; &amp;nbsp;β&amp;nbsp;&lt;/font&gt;&amp;lt; 90º&lt;/font&gt;" style="text;html=1;strokeColor=none;fillColor=none;align=center;verticalAlign=middle;whiteSpace=wrap;rounded=0;" vertex="1" parent="1">
          <mxGeometry x="599.06" y="310" width="60.55" height="30" as="geometry" />
        </mxCell>
        <mxCell id="68czG8918Wwrf0z5QYm2-64" value="D" style="text;html=1;strokeColor=none;fillColor=none;align=center;verticalAlign=middle;whiteSpace=wrap;rounded=0;" vertex="1" parent="1">
          <mxGeometry x="441" y="174" width="60" height="30" as="geometry" />
        </mxCell>
        <mxCell id="68czG8918Wwrf0z5QYm2-65" value="D = distància mínima de&amp;nbsp;p a segment P1 P2" style="text;html=1;strokeColor=none;fillColor=none;align=center;verticalAlign=middle;whiteSpace=wrap;rounded=0;" vertex="1" parent="1">
          <mxGeometry x="244.06" y="400" width="250" height="30" as="geometry" />
        </mxCell>
        <mxCell id="68czG8918Wwrf0z5QYm2-67" value="&lt;b&gt;&lt;i&gt;p&lt;/i&gt;&lt;/b&gt;" style="text;html=1;strokeColor=none;fillColor=none;align=center;verticalAlign=middle;whiteSpace=wrap;rounded=0;" vertex="1" parent="1">
          <mxGeometry x="244.06" y="163" width="21.49" height="30" as="geometry" />
        </mxCell>
        <mxCell id="68czG8918Wwrf0z5QYm2-57" value="" style="ellipse;whiteSpace=wrap;html=1;labelBackgroundColor=#FF0F0F;fillColor=#000000;fontColor=#FF0F0F;" vertex="1" parent="1">
          <mxGeometry x="626.06" y="344.17" width="5" height="5" as="geometry" />
        </mxCell>
        <mxCell id="68czG8918Wwrf0z5QYm2-62" value="&lt;font style=&quot;font-size: 9px;&quot;&gt;&amp;nbsp; &amp;nbsp; &amp;nbsp;&lt;font color=&quot;#00cc66&quot;&gt;α&lt;/font&gt;&amp;nbsp;&amp;gt; 90º&lt;/font&gt;" style="text;html=1;strokeColor=none;fillColor=none;align=center;verticalAlign=middle;whiteSpace=wrap;rounded=0;" vertex="1" parent="1">
          <mxGeometry x="470" y="199.17000000000002" width="51.61" height="30" as="geometry" />
        </mxCell>
        <mxCell id="68czG8918Wwrf0z5QYm2-56" value="" style="ellipse;whiteSpace=wrap;html=1;labelBackgroundColor=#FF0F0F;fillColor=#000000;fontColor=#FF0F0F;" vertex="1" parent="1">
          <mxGeometry x="481.06" y="217.17" width="5" height="5" as="geometry" />
        </mxCell>
        <mxCell id="68czG8918Wwrf0z5QYm2-70" value="" style="endArrow=none;html=1;rounded=0;fontColor=#FF0F0F;labelBackgroundColor=#FF0F0F;labelBorderColor=#FF0F0F;strokeColor=#FF0F0F;" edge="1" parent="1">
          <mxGeometry width="50" height="50" relative="1" as="geometry">
            <mxPoint x="448" y="188" as="sourcePoint" />
            <mxPoint x="471" y="160" as="targetPoint" />
          </mxGeometry>
        </mxCell>
        <mxCell id="68czG8918Wwrf0z5QYm2-72" value="" style="endArrow=none;html=1;rounded=0;strokeColor=#00CC66;exitX=0;exitY=0;exitDx=0;exitDy=0;" edge="1" parent="1" source="68czG8918Wwrf0z5QYm2-56">
          <mxGeometry width="50" height="50" relative="1" as="geometry">
            <mxPoint x="400" y="210" as="sourcePoint" />
            <mxPoint x="470" y="160" as="targetPoint" />
          </mxGeometry>
        </mxCell>
        <mxCell id="68czG8918Wwrf0z5QYm2-74" value="d" style="text;html=1;strokeColor=none;fillColor=none;align=center;verticalAlign=middle;whiteSpace=wrap;rounded=0;" vertex="1" parent="1">
          <mxGeometry x="445" y="155" width="20" height="30" as="geometry" />
        </mxCell>
        <mxCell id="68czG8918Wwrf0z5QYm2-75" value="" style="endArrow=none;dashed=1;html=1;dashPattern=1 2;strokeWidth=1;rounded=0;entryX=0.5;entryY=0;entryDx=0;entryDy=0;" edge="1" parent="1" target="68czG8918Wwrf0z5QYm2-58">
          <mxGeometry width="50" height="50" relative="1" as="geometry">
            <mxPoint x="470" y="160" as="sourcePoint" />
            <mxPoint x="629" y="344" as="targetPoint" />
          </mxGeometry>
        </mxCell>
        <mxCell id="68czG8918Wwrf0z5QYm2-58" value="" style="ellipse;whiteSpace=wrap;html=1;labelBackgroundColor=#FF0F0F;fillColor=#000000;fontColor=#FF0F0F;" vertex="1" parent="1">
          <mxGeometry x="468.49999999999994" y="160" width="5" height="5" as="geometry" />
        </mxCell>
        <mxCell id="68czG8918Wwrf0z5QYm2-76" value="P2" style="text;html=1;strokeColor=none;fillColor=none;align=center;verticalAlign=middle;whiteSpace=wrap;rounded=0;fontColor=#0000FF;fontStyle=1" vertex="1" parent="1">
          <mxGeometry x="619.9999999999999" y="340" width="50.94" height="30" as="geometry" />
        </mxCell>
        <mxCell id="68czG8918Wwrf0z5QYm2-77" value="d ≠ D" style="text;html=1;strokeColor=none;fillColor=none;align=center;verticalAlign=middle;whiteSpace=wrap;rounded=0;" vertex="1" parent="1">
          <mxGeometry x="494.06" y="135" width="60" height="30" as="geometry" />
        </mxCell>
        <mxCell id="68czG8918Wwrf0z5QYm2-79" value="Càlcul de la &lt;b&gt;&lt;font color=&quot;#00cc66&quot;&gt;distància més curta&lt;/font&gt;&lt;/b&gt; del punt p al segment (catet) definit per &lt;b&gt;&lt;font color=&quot;#0000ff&quot;&gt;P1&lt;/font&gt; &lt;/b&gt;i &lt;font color=&quot;#0000ff&quot;&gt;&lt;b&gt;P2 &lt;/b&gt;&lt;/font&gt;en verd" style="text;html=1;strokeColor=none;fillColor=none;align=center;verticalAlign=middle;whiteSpace=wrap;rounded=0;" vertex="1" parent="1">
          <mxGeometry x="126.06" y="90" width="473.94" height="30" as="geometry" />
        </mxCell>
        <mxCell id="68czG8918Wwrf0z5QYm2-80" value="&lt;b&gt;&lt;i&gt;p&lt;/i&gt;&lt;/b&gt;" style="text;html=1;strokeColor=none;fillColor=none;align=center;verticalAlign=middle;whiteSpace=wrap;rounded=0;" vertex="1" parent="1">
          <mxGeometry x="460.26" y="133" width="21.49" height="30" as="geometry" />
        </mxCell>
      </root>
    </mxGraphModel>
  </diagram>
</mxfile>
